solid OpenSCAD_Model
  facet normal 0.000000 -0.000000 1.000000
    outer loop
      vertex -16.981461 1.784824 20.200000
      vertex -16.981461 -1.784824 20.200000
      vertex -16.239290 -5.276465 20.200000
    endloop
  endfacet
  facet normal 0.000000 0.000000 1.000000
    outer loop
      vertex -12.689198 -11.425405 20.200000
      vertex -16.981461 1.784824 20.200000
      vertex -14.787384 -8.537500 20.200000
    endloop
  endfacet
  facet normal 0.000000 0.000000 1.000000
    outer loop
      vertex -14.787384 -8.537500 20.200000
      vertex -16.981461 1.784824 20.200000
      vertex -16.239290 -5.276465 20.200000
    endloop
  endfacet
  facet normal 0.000000 0.000000 1.000000
    outer loop
      vertex -10.036433 -13.813965 20.200000
      vertex -16.981461 1.784824 20.200000
      vertex -12.689198 -11.425405 20.200000
    endloop
  endfacet
  facet normal -0.000000 -0.000000 1.000000
    outer loop
      vertex -12.622320 -7.287500 20.200000
      vertex -16.981461 1.784824 20.200000
      vertex -10.036433 -13.813965 20.200000
    endloop
  endfacet
  facet normal 0.000000 0.000000 1.000000
    outer loop
      vertex 0.000000 14.575000 20.200000
      vertex 3.030313 14.256501 20.200000
      vertex 3.550092 16.701870 20.200000
    endloop
  endfacet
  facet normal 0.000000 0.000000 1.000000
    outer loop
      vertex -5.928187 13.314925 20.200000
      vertex -3.030313 14.256501 20.200000
      vertex 0.000000 17.075000 20.200000
    endloop
  endfacet
  facet normal 0.000000 -0.000000 1.000000
    outer loop
      vertex -10.036433 13.813965 20.200000
      vertex -16.981461 1.784824 20.200000
      vertex -6.945028 15.598789 20.200000
    endloop
  endfacet
  facet normal 0.000000 -0.000000 1.000000
    outer loop
      vertex -12.689198 11.425405 20.200000
      vertex -16.981461 1.784824 20.200000
      vertex -10.036433 13.813965 20.200000
    endloop
  endfacet
  facet normal 0.000000 -0.000000 1.000000
    outer loop
      vertex -14.787384 8.537500 20.200000
      vertex -16.981461 1.784824 20.200000
      vertex -12.689198 11.425405 20.200000
    endloop
  endfacet
  facet normal 0.000000 -0.000000 1.000000
    outer loop
      vertex -16.239290 5.276465 20.200000
      vertex -16.981461 1.784824 20.200000
      vertex -14.787384 8.537500 20.200000
    endloop
  endfacet
  facet normal -0.000000 -0.000000 1.000000
    outer loop
      vertex -8.566970 -11.791423 20.200000
      vertex -10.831336 -9.752579 20.200000
      vertex -6.945028 -15.598789 20.200000
    endloop
  endfacet
  facet normal 0.000000 -0.000000 1.000000
    outer loop
      vertex 12.622320 -7.287500 20.200000
      vertex 10.831336 -9.752579 20.200000
      vertex 14.787384 -8.537500 20.200000
    endloop
  endfacet
  facet normal 0.000000 0.000000 1.000000
    outer loop
      vertex 3.030313 14.256501 20.200000
      vertex 5.928187 13.314925 20.200000
      vertex 6.945028 15.598789 20.200000
    endloop
  endfacet
  facet normal 0.000000 0.000000 1.000000
    outer loop
      vertex -6.945028 15.598789 20.200000
      vertex -16.981461 1.784824 20.200000
      vertex -12.622320 7.287500 20.200000
    endloop
  endfacet
  facet normal 0.000000 -0.000000 1.000000
    outer loop
      vertex -6.945028 15.598789 20.200000
      vertex -10.831336 9.752579 20.200000
      vertex -3.550092 16.701870 20.200000
    endloop
  endfacet
  facet normal 0.000000 0.000000 1.000000
    outer loop
      vertex -6.945028 15.598789 20.200000
      vertex -12.622320 7.287500 20.200000
      vertex -10.831336 9.752579 20.200000
    endloop
  endfacet
  facet normal 0.000000 0.000000 1.000000
    outer loop
      vertex -10.831336 9.752579 20.200000
      vertex -8.566970 11.791423 20.200000
      vertex -3.550092 16.701870 20.200000
    endloop
  endfacet
  facet normal 0.000000 -0.000000 1.000000
    outer loop
      vertex -3.550092 16.701870 20.200000
      vertex -5.928187 13.314925 20.200000
      vertex 0.000000 17.075000 20.200000
    endloop
  endfacet
  facet normal 0.000000 0.000000 1.000000
    outer loop
      vertex -8.566970 11.791423 20.200000
      vertex -5.928187 13.314925 20.200000
      vertex -3.550092 16.701870 20.200000
    endloop
  endfacet
  facet normal 0.000000 -0.000000 1.000000
    outer loop
      vertex 0.000000 17.075000 20.200000
      vertex -3.030313 14.256501 20.200000
      vertex 3.550092 16.701870 20.200000
    endloop
  endfacet
  facet normal 0.000000 0.000000 1.000000
    outer loop
      vertex -3.030313 14.256501 20.200000
      vertex 0.000000 14.575000 20.200000
      vertex 3.550092 16.701870 20.200000
    endloop
  endfacet
  facet normal 0.000000 -0.000000 1.000000
    outer loop
      vertex 3.550092 16.701870 20.200000
      vertex 3.030313 14.256501 20.200000
      vertex 6.945028 15.598789 20.200000
    endloop
  endfacet
  facet normal -0.000000 0.000000 1.000000
    outer loop
      vertex 0.000000 -14.575000 20.200000
      vertex -3.030313 -14.256501 20.200000
      vertex 0.000000 -17.075000 20.200000
    endloop
  endfacet
  facet normal 0.000000 -0.000000 1.000000
    outer loop
      vertex 6.945028 15.598789 20.200000
      vertex 5.928187 13.314925 20.200000
      vertex 10.036433 13.813965 20.200000
    endloop
  endfacet
  facet normal -0.000000 0.000000 1.000000
    outer loop
      vertex -13.861649 4.503923 20.200000
      vertex -12.622320 7.287500 20.200000
      vertex -16.981461 1.784824 20.200000
    endloop
  endfacet
  facet normal 0.000000 -0.000000 1.000000
    outer loop
      vertex 10.036433 13.813965 20.200000
      vertex 8.566970 11.791423 20.200000
      vertex 12.689198 11.425405 20.200000
    endloop
  endfacet
  facet normal 0.000000 -0.000000 1.000000
    outer loop
      vertex 12.689198 11.425405 20.200000
      vertex 10.831336 9.752579 20.200000
      vertex 14.787384 8.537500 20.200000
    endloop
  endfacet
  facet normal 0.000000 -0.000000 1.000000
    outer loop
      vertex 14.787384 8.537500 20.200000
      vertex 12.622320 7.287500 20.200000
      vertex 16.239290 5.276465 20.200000
    endloop
  endfacet
  facet normal 0.000000 -0.000000 1.000000
    outer loop
      vertex 16.239290 5.276465 20.200000
      vertex 13.861649 4.503923 20.200000
      vertex 16.981461 1.784824 20.200000
    endloop
  endfacet
  facet normal 0.000000 0.000000 1.000000
    outer loop
      vertex 16.981461 1.784824 20.200000
      vertex 14.495157 1.523502 20.200000
      vertex 16.981461 -1.784824 20.200000
    endloop
  endfacet
  facet normal 0.000000 -0.000000 1.000000
    outer loop
      vertex 14.495157 1.523502 20.200000
      vertex 14.495157 -1.523502 20.200000
      vertex 16.981461 -1.784824 20.200000
    endloop
  endfacet
  facet normal 0.000000 0.000000 1.000000
    outer loop
      vertex 16.981461 -1.784824 20.200000
      vertex 13.861649 -4.503923 20.200000
      vertex 16.239290 -5.276465 20.200000
    endloop
  endfacet
  facet normal 0.000000 0.000000 1.000000
    outer loop
      vertex 16.239290 -5.276465 20.200000
      vertex 12.622320 -7.287500 20.200000
      vertex 14.787384 -8.537500 20.200000
    endloop
  endfacet
  facet normal 0.000000 0.000000 1.000000
    outer loop
      vertex 5.928187 13.314925 20.200000
      vertex 8.566970 11.791423 20.200000
      vertex 10.036433 13.813965 20.200000
    endloop
  endfacet
  facet normal 0.000000 0.000000 1.000000
    outer loop
      vertex 14.787384 -8.537500 20.200000
      vertex 10.831336 -9.752579 20.200000
      vertex 12.689198 -11.425405 20.200000
    endloop
  endfacet
  facet normal 0.000000 0.000000 1.000000
    outer loop
      vertex 8.566970 11.791423 20.200000
      vertex 10.831336 9.752579 20.200000
      vertex 12.689198 11.425405 20.200000
    endloop
  endfacet
  facet normal 0.000000 0.000000 1.000000
    outer loop
      vertex 12.689198 -11.425405 20.200000
      vertex 8.566970 -11.791423 20.200000
      vertex 10.036433 -13.813965 20.200000
    endloop
  endfacet
  facet normal 0.000000 0.000000 1.000000
    outer loop
      vertex 10.831336 9.752579 20.200000
      vertex 12.622320 7.287500 20.200000
      vertex 14.787384 8.537500 20.200000
    endloop
  endfacet
  facet normal -0.000000 0.000000 1.000000
    outer loop
      vertex 10.036433 -13.813965 20.200000
      vertex 5.928187 -13.314925 20.200000
      vertex 6.945028 -15.598789 20.200000
    endloop
  endfacet
  facet normal 0.000000 0.000000 1.000000
    outer loop
      vertex 12.622320 7.287500 20.200000
      vertex 13.861649 4.503923 20.200000
      vertex 16.239290 5.276465 20.200000
    endloop
  endfacet
  facet normal -0.000000 0.000000 1.000000
    outer loop
      vertex 6.945028 -15.598789 20.200000
      vertex 3.030313 -14.256501 20.200000
      vertex 3.550092 -16.701870 20.200000
    endloop
  endfacet
  facet normal 0.000000 0.000000 1.000000
    outer loop
      vertex 13.861649 4.503923 20.200000
      vertex 14.495157 1.523502 20.200000
      vertex 16.981461 1.784824 20.200000
    endloop
  endfacet
  facet normal -0.000000 0.000000 1.000000
    outer loop
      vertex 3.550092 -16.701870 20.200000
      vertex 0.000000 -14.575000 20.200000
      vertex 0.000000 -17.075000 20.200000
    endloop
  endfacet
  facet normal 0.000000 -0.000000 1.000000
    outer loop
      vertex 14.495157 -1.523502 20.200000
      vertex 13.861649 -4.503923 20.200000
      vertex 16.981461 -1.784824 20.200000
    endloop
  endfacet
  facet normal 0.000000 0.000000 1.000000
    outer loop
      vertex 0.000000 -17.075000 20.200000
      vertex -3.030313 -14.256501 20.200000
      vertex -3.550092 -16.701870 20.200000
    endloop
  endfacet
  facet normal -0.000000 0.000000 1.000000
    outer loop
      vertex -3.030313 -14.256501 20.200000
      vertex -5.928187 -13.314925 20.200000
      vertex -3.550092 -16.701870 20.200000
    endloop
  endfacet
  facet normal 0.000000 0.000000 1.000000
    outer loop
      vertex -3.550092 -16.701870 20.200000
      vertex -8.566970 -11.791423 20.200000
      vertex -6.945028 -15.598789 20.200000
    endloop
  endfacet
  facet normal 0.000000 -0.000000 1.000000
    outer loop
      vertex 10.831336 -9.752579 20.200000
      vertex 8.566970 -11.791423 20.200000
      vertex 12.689198 -11.425405 20.200000
    endloop
  endfacet
  facet normal 0.000000 0.000000 1.000000
    outer loop
      vertex -6.945028 -15.598789 20.200000
      vertex -10.831336 -9.752579 20.200000
      vertex -10.036433 -13.813965 20.200000
    endloop
  endfacet
  facet normal 0.000000 -0.000000 1.000000
    outer loop
      vertex 8.566970 -11.791423 20.200000
      vertex 5.928187 -13.314925 20.200000
      vertex 10.036433 -13.813965 20.200000
    endloop
  endfacet
  facet normal -0.000000 -0.000000 1.000000
    outer loop
      vertex -10.831336 -9.752579 20.200000
      vertex -12.622320 -7.287500 20.200000
      vertex -10.036433 -13.813965 20.200000
    endloop
  endfacet
  facet normal -0.000000 -0.000000 1.000000
    outer loop
      vertex -13.861649 -4.503923 20.200000
      vertex -16.981461 1.784824 20.200000
      vertex -12.622320 -7.287500 20.200000
    endloop
  endfacet
  facet normal 0.000000 0.000000 1.000000
    outer loop
      vertex -13.861649 -4.503923 20.200000
      vertex -14.495157 -1.523502 20.200000
      vertex -16.981461 1.784824 20.200000
    endloop
  endfacet
  facet normal 0.000000 -0.000000 1.000000
    outer loop
      vertex 5.928187 -13.314925 20.200000
      vertex 3.030313 -14.256501 20.200000
      vertex 6.945028 -15.598789 20.200000
    endloop
  endfacet
  facet normal 0.000000 -0.000000 1.000000
    outer loop
      vertex 3.030313 -14.256501 20.200000
      vertex 0.000000 -14.575000 20.200000
      vertex 3.550092 -16.701870 20.200000
    endloop
  endfacet
  facet normal -0.000000 -0.000000 1.000000
    outer loop
      vertex -5.928187 -13.314925 20.200000
      vertex -8.566970 -11.791423 20.200000
      vertex -3.550092 -16.701870 20.200000
    endloop
  endfacet
  facet normal 0.000000 0.000000 1.000000
    outer loop
      vertex -14.495157 -1.523502 20.200000
      vertex -14.495157 1.523502 20.200000
      vertex -16.981461 1.784824 20.200000
    endloop
  endfacet
  facet normal 0.000000 -0.000000 1.000000
    outer loop
      vertex 13.861649 -4.503923 20.200000
      vertex 12.622320 -7.287500 20.200000
      vertex 16.239290 -5.276465 20.200000
    endloop
  endfacet
  facet normal 0.000000 0.000000 1.000000
    outer loop
      vertex -14.495157 1.523502 20.200000
      vertex -13.861649 4.503923 20.200000
      vertex -16.981461 1.784824 20.200000
    endloop
  endfacet
  facet normal -0.959037 -0.203849 -0.196708
    outer loop
      vertex -16.239290 -5.276465 20.200000
      vertex -16.981461 -1.784824 20.200000
      vertex -12.363735 -4.017221 0.000000
    endloop
  endfacet
  facet normal -0.959037 -0.203850 -0.196708
    outer loop
      vertex -12.363735 -4.017221 0.000000
      vertex -16.981461 -1.784824 20.200000
      vertex -12.928785 -1.358870 0.000000
    endloop
  endfacet
  facet normal -0.980462 -0.000000 -0.196708
    outer loop
      vertex -16.981461 -1.784824 20.200000
      vertex -16.981461 1.784824 20.200000
      vertex -12.928785 -1.358870 0.000000
    endloop
  endfacet
  facet normal -0.980462 -0.000000 -0.196708
    outer loop
      vertex -12.928785 -1.358870 0.000000
      vertex -16.981461 1.784824 20.200000
      vertex -12.928785 1.358870 0.000000
    endloop
  endfacet
  facet normal -0.959037 0.203849 -0.196708
    outer loop
      vertex -12.928785 1.358870 0.000000
      vertex -16.981461 1.784824 20.200000
      vertex -16.239290 5.276465 20.200000
    endloop
  endfacet
  facet normal -0.959037 0.203850 -0.196708
    outer loop
      vertex -12.928785 1.358870 0.000000
      vertex -16.239290 5.276465 20.200000
      vertex -12.363735 4.017221 0.000000
    endloop
  endfacet
  facet normal -0.895697 0.398790 -0.196708
    outer loop
      vertex -12.363735 4.017221 0.000000
      vertex -16.239290 5.276465 20.200000
      vertex -14.787384 8.537500 20.200000
    endloop
  endfacet
  facet normal -0.895697 0.398790 -0.196708
    outer loop
      vertex -12.363735 4.017221 0.000000
      vertex -14.787384 8.537500 20.200000
      vertex -11.258330 6.500000 0.000000
    endloop
  endfacet
  facet normal -0.793211 0.576301 -0.196708
    outer loop
      vertex -11.258330 6.500000 0.000000
      vertex -14.787384 8.537500 20.200000
      vertex -12.689198 11.425405 20.200000
    endloop
  endfacet
  facet normal -0.793211 0.576301 -0.196708
    outer loop
      vertex -11.258330 6.500000 0.000000
      vertex -12.689198 11.425405 20.200000
      vertex -9.660883 8.698698 0.000000
    endloop
  endfacet
  facet normal -0.656057 0.728625 -0.196708
    outer loop
      vertex -9.660883 8.698698 0.000000
      vertex -12.689198 11.425405 20.200000
      vertex -10.036433 13.813965 20.200000
    endloop
  endfacet
  facet normal -0.656057 0.728625 -0.196708
    outer loop
      vertex -9.660883 8.698698 0.000000
      vertex -10.036433 13.813965 20.200000
      vertex -7.641208 10.517221 0.000000
    endloop
  endfacet
  facet normal -0.490231 0.849105 -0.196708
    outer loop
      vertex -7.641208 10.517221 0.000000
      vertex -10.036433 13.813965 20.200000
      vertex -6.945028 15.598789 20.200000
    endloop
  endfacet
  facet normal -0.490231 0.849105 -0.196708
    outer loop
      vertex -5.287576 11.876091 0.000000
      vertex -7.641208 10.517221 0.000000
      vertex -6.945028 15.598789 20.200000
    endloop
  endfacet
  facet normal -0.302979 0.932475 -0.196708
    outer loop
      vertex -5.287576 11.876091 0.000000
      vertex -6.945028 15.598789 20.200000
      vertex -3.550092 16.701870 20.200000
    endloop
  endfacet
  facet normal -0.302980 0.932475 -0.196708
    outer loop
      vertex -2.702852 12.715919 0.000000
      vertex -5.287576 11.876091 0.000000
      vertex -3.550092 16.701870 20.200000
    endloop
  endfacet
  facet normal -0.102486 0.975091 -0.196708
    outer loop
      vertex -2.702852 12.715919 0.000000
      vertex -3.550092 16.701870 20.200000
      vertex 0.000000 17.075000 20.200000
    endloop
  endfacet
  facet normal -0.102486 0.975091 -0.196708
    outer loop
      vertex 0.000000 13.000000 0.000000
      vertex -2.702852 12.715919 0.000000
      vertex 0.000000 17.075000 20.200000
    endloop
  endfacet
  facet normal 0.102486 0.975091 -0.196708
    outer loop
      vertex 3.550092 16.701870 20.200000
      vertex 0.000000 13.000000 0.000000
      vertex 0.000000 17.075000 20.200000
    endloop
  endfacet
  facet normal 0.102486 0.975091 -0.196708
    outer loop
      vertex 2.702852 12.715919 0.000000
      vertex 0.000000 13.000000 0.000000
      vertex 3.550092 16.701870 20.200000
    endloop
  endfacet
  facet normal 0.302979 0.932475 -0.196708
    outer loop
      vertex 6.945028 15.598789 20.200000
      vertex 2.702852 12.715919 0.000000
      vertex 3.550092 16.701870 20.200000
    endloop
  endfacet
  facet normal 0.302980 0.932475 -0.196708
    outer loop
      vertex 5.287576 11.876091 0.000000
      vertex 2.702852 12.715919 0.000000
      vertex 6.945028 15.598789 20.200000
    endloop
  endfacet
  facet normal 0.490231 0.849105 -0.196708
    outer loop
      vertex 10.036433 13.813965 20.200000
      vertex 5.287576 11.876091 0.000000
      vertex 6.945028 15.598789 20.200000
    endloop
  endfacet
  facet normal 0.490231 0.849105 -0.196708
    outer loop
      vertex 7.641208 10.517221 0.000000
      vertex 5.287576 11.876091 0.000000
      vertex 10.036433 13.813965 20.200000
    endloop
  endfacet
  facet normal 0.656057 0.728625 -0.196708
    outer loop
      vertex 12.689198 11.425405 20.200000
      vertex 7.641208 10.517221 0.000000
      vertex 10.036433 13.813965 20.200000
    endloop
  endfacet
  facet normal 0.656057 0.728625 -0.196708
    outer loop
      vertex 9.660883 8.698698 0.000000
      vertex 7.641208 10.517221 0.000000
      vertex 12.689198 11.425405 20.200000
    endloop
  endfacet
  facet normal 0.793211 0.576301 -0.196708
    outer loop
      vertex 14.787384 8.537500 20.200000
      vertex 9.660883 8.698698 0.000000
      vertex 12.689198 11.425405 20.200000
    endloop
  endfacet
  facet normal 0.793211 0.576301 -0.196708
    outer loop
      vertex 11.258330 6.500000 0.000000
      vertex 9.660883 8.698698 0.000000
      vertex 14.787384 8.537500 20.200000
    endloop
  endfacet
  facet normal 0.895697 0.398790 -0.196708
    outer loop
      vertex 16.239290 5.276465 20.200000
      vertex 11.258330 6.500000 0.000000
      vertex 14.787384 8.537500 20.200000
    endloop
  endfacet
  facet normal 0.895697 0.398790 -0.196708
    outer loop
      vertex 12.363735 4.017221 0.000000
      vertex 11.258330 6.500000 0.000000
      vertex 16.239290 5.276465 20.200000
    endloop
  endfacet
  facet normal 0.959037 0.203849 -0.196708
    outer loop
      vertex 16.981461 1.784824 20.200000
      vertex 12.363735 4.017221 0.000000
      vertex 16.239290 5.276465 20.200000
    endloop
  endfacet
  facet normal 0.959037 0.203850 -0.196708
    outer loop
      vertex 12.928785 1.358870 0.000000
      vertex 12.363735 4.017221 0.000000
      vertex 16.981461 1.784824 20.200000
    endloop
  endfacet
  facet normal 0.980462 0.000000 -0.196708
    outer loop
      vertex 16.981461 -1.784824 20.200000
      vertex 12.928785 -1.358870 0.000000
      vertex 12.928785 1.358870 0.000000
    endloop
  endfacet
  facet normal 0.980462 0.000000 -0.196708
    outer loop
      vertex 16.981461 1.784824 20.200000
      vertex 16.981461 -1.784824 20.200000
      vertex 12.928785 1.358870 0.000000
    endloop
  endfacet
  facet normal 0.959037 -0.203849 -0.196708
    outer loop
      vertex 16.239290 -5.276465 20.200000
      vertex 12.928785 -1.358870 0.000000
      vertex 16.981461 -1.784824 20.200000
    endloop
  endfacet
  facet normal 0.959037 -0.203850 -0.196708
    outer loop
      vertex 16.239290 -5.276465 20.200000
      vertex 12.363735 -4.017221 0.000000
      vertex 12.928785 -1.358870 0.000000
    endloop
  endfacet
  facet normal 0.895697 -0.398790 -0.196708
    outer loop
      vertex 14.787384 -8.537500 20.200000
      vertex 12.363735 -4.017221 0.000000
      vertex 16.239290 -5.276465 20.200000
    endloop
  endfacet
  facet normal 0.895697 -0.398790 -0.196708
    outer loop
      vertex 14.787384 -8.537500 20.200000
      vertex 11.258330 -6.500000 0.000000
      vertex 12.363735 -4.017221 0.000000
    endloop
  endfacet
  facet normal 0.793211 -0.576301 -0.196708
    outer loop
      vertex 12.689198 -11.425405 20.200000
      vertex 11.258330 -6.500000 0.000000
      vertex 14.787384 -8.537500 20.200000
    endloop
  endfacet
  facet normal 0.793211 -0.576301 -0.196708
    outer loop
      vertex 12.689198 -11.425405 20.200000
      vertex 9.660883 -8.698698 0.000000
      vertex 11.258330 -6.500000 0.000000
    endloop
  endfacet
  facet normal 0.656057 -0.728625 -0.196708
    outer loop
      vertex 10.036433 -13.813965 20.200000
      vertex 9.660883 -8.698698 0.000000
      vertex 12.689198 -11.425405 20.200000
    endloop
  endfacet
  facet normal 0.656057 -0.728625 -0.196708
    outer loop
      vertex 10.036433 -13.813965 20.200000
      vertex 7.641208 -10.517221 0.000000
      vertex 9.660883 -8.698698 0.000000
    endloop
  endfacet
  facet normal 0.490231 -0.849105 -0.196708
    outer loop
      vertex 10.036433 -13.813965 20.200000
      vertex 6.945028 -15.598789 20.200000
      vertex 7.641208 -10.517221 0.000000
    endloop
  endfacet
  facet normal 0.490231 -0.849105 -0.196708
    outer loop
      vertex 6.945028 -15.598789 20.200000
      vertex 5.287576 -11.876091 0.000000
      vertex 7.641208 -10.517221 0.000000
    endloop
  endfacet
  facet normal 0.302979 -0.932475 -0.196708
    outer loop
      vertex 6.945028 -15.598789 20.200000
      vertex 3.550092 -16.701870 20.200000
      vertex 5.287576 -11.876091 0.000000
    endloop
  endfacet
  facet normal 0.302980 -0.932475 -0.196708
    outer loop
      vertex 3.550092 -16.701870 20.200000
      vertex 2.702852 -12.715919 0.000000
      vertex 5.287576 -11.876091 0.000000
    endloop
  endfacet
  facet normal 0.102486 -0.975091 -0.196708
    outer loop
      vertex 3.550092 -16.701870 20.200000
      vertex 0.000000 -17.075000 20.200000
      vertex 2.702852 -12.715919 0.000000
    endloop
  endfacet
  facet normal 0.102486 -0.975091 -0.196708
    outer loop
      vertex 2.702852 -12.715919 0.000000
      vertex 0.000000 -17.075000 20.200000
      vertex 0.000000 -13.000000 0.000000
    endloop
  endfacet
  facet normal -0.102486 -0.975091 -0.196708
    outer loop
      vertex 0.000000 -17.075000 20.200000
      vertex -3.550092 -16.701870 20.200000
      vertex 0.000000 -13.000000 0.000000
    endloop
  endfacet
  facet normal -0.102486 -0.975091 -0.196708
    outer loop
      vertex 0.000000 -13.000000 0.000000
      vertex -3.550092 -16.701870 20.200000
      vertex -2.702852 -12.715919 0.000000
    endloop
  endfacet
  facet normal -0.302979 -0.932475 -0.196708
    outer loop
      vertex -3.550092 -16.701870 20.200000
      vertex -6.945028 -15.598789 20.200000
      vertex -2.702852 -12.715919 0.000000
    endloop
  endfacet
  facet normal -0.302980 -0.932475 -0.196708
    outer loop
      vertex -2.702852 -12.715919 0.000000
      vertex -6.945028 -15.598789 20.200000
      vertex -5.287576 -11.876091 0.000000
    endloop
  endfacet
  facet normal -0.490231 -0.849105 -0.196708
    outer loop
      vertex -6.945028 -15.598789 20.200000
      vertex -10.036433 -13.813965 20.200000
      vertex -5.287576 -11.876091 0.000000
    endloop
  endfacet
  facet normal -0.490231 -0.849105 -0.196708
    outer loop
      vertex -5.287576 -11.876091 0.000000
      vertex -10.036433 -13.813965 20.200000
      vertex -7.641208 -10.517221 0.000000
    endloop
  endfacet
  facet normal -0.656057 -0.728625 -0.196708
    outer loop
      vertex -10.036433 -13.813965 20.200000
      vertex -12.689198 -11.425405 20.200000
      vertex -7.641208 -10.517221 0.000000
    endloop
  endfacet
  facet normal -0.656057 -0.728625 -0.196708
    outer loop
      vertex -7.641208 -10.517221 0.000000
      vertex -12.689198 -11.425405 20.200000
      vertex -9.660883 -8.698698 0.000000
    endloop
  endfacet
  facet normal -0.793211 -0.576301 -0.196708
    outer loop
      vertex -12.689198 -11.425405 20.200000
      vertex -14.787384 -8.537500 20.200000
      vertex -9.660883 -8.698698 0.000000
    endloop
  endfacet
  facet normal -0.793211 -0.576301 -0.196708
    outer loop
      vertex -9.660883 -8.698698 0.000000
      vertex -14.787384 -8.537500 20.200000
      vertex -11.258330 -6.500000 0.000000
    endloop
  endfacet
  facet normal -0.895697 -0.398790 -0.196708
    outer loop
      vertex -14.787384 -8.537500 20.200000
      vertex -16.239290 -5.276465 20.200000
      vertex -11.258330 -6.500000 0.000000
    endloop
  endfacet
  facet normal -0.895697 -0.398790 -0.196708
    outer loop
      vertex -11.258330 -6.500000 0.000000
      vertex -16.239290 -5.276465 20.200000
      vertex -12.363735 -4.017221 0.000000
    endloop
  endfacet
  facet normal 0.978148 0.207912 0.000000
    outer loop
      vertex -14.495157 -1.523502 20.200000
      vertex -13.861649 -4.503923 20.200000
      vertex -13.861649 -4.503923 18.200000
    endloop
  endfacet
  facet normal 0.978148 0.207912 0.000000
    outer loop
      vertex -14.495157 -1.523502 18.200000
      vertex -14.495157 -1.523502 20.200000
      vertex -13.861649 -4.503923 18.200000
    endloop
  endfacet
  facet normal 1.000000 0.000000 0.000000
    outer loop
      vertex -14.495157 1.523502 18.200000
      vertex -14.495157 1.523502 20.200000
      vertex -14.495157 -1.523502 20.200000
    endloop
  endfacet
  facet normal 1.000000 0.000000 0.000000
    outer loop
      vertex -14.495157 -1.523502 18.200000
      vertex -14.495157 1.523502 18.200000
      vertex -14.495157 -1.523502 20.200000
    endloop
  endfacet
  facet normal 0.913545 0.406737 0.000000
    outer loop
      vertex -13.861649 -4.503923 20.200000
      vertex -12.622320 -7.287500 20.200000
      vertex -12.622320 -7.287500 18.200000
    endloop
  endfacet
  facet normal 0.913545 0.406737 0.000000
    outer loop
      vertex -13.861649 -4.503923 18.200000
      vertex -13.861649 -4.503923 20.200000
      vertex -12.622320 -7.287500 18.200000
    endloop
  endfacet
  facet normal 0.809017 0.587785 0.000000
    outer loop
      vertex -12.622320 -7.287500 20.200000
      vertex -10.831336 -9.752579 20.200000
      vertex -10.831336 -9.752579 18.200000
    endloop
  endfacet
  facet normal 0.809017 0.587785 0.000000
    outer loop
      vertex -12.622320 -7.287500 18.200000
      vertex -12.622320 -7.287500 20.200000
      vertex -10.831336 -9.752579 18.200000
    endloop
  endfacet
  facet normal 0.669131 0.743145 -0.000000
    outer loop
      vertex -8.566970 -11.791423 20.200000
      vertex -8.566970 -11.791423 18.200000
      vertex -10.831336 -9.752579 20.200000
    endloop
  endfacet
  facet normal 0.669131 0.743145 -0.000000
    outer loop
      vertex -10.831336 -9.752579 20.200000
      vertex -8.566970 -11.791423 18.200000
      vertex -10.831336 -9.752579 18.200000
    endloop
  endfacet
  facet normal 0.500000 0.866025 -0.000000
    outer loop
      vertex -5.928187 -13.314925 20.200000
      vertex -5.928187 -13.314925 18.200000
      vertex -8.566970 -11.791423 20.200000
    endloop
  endfacet
  facet normal 0.500000 0.866025 -0.000000
    outer loop
      vertex -8.566970 -11.791423 20.200000
      vertex -5.928187 -13.314925 18.200000
      vertex -8.566970 -11.791423 18.200000
    endloop
  endfacet
  facet normal 0.309017 0.951057 -0.000000
    outer loop
      vertex -3.030313 -14.256501 20.200000
      vertex -3.030313 -14.256501 18.200000
      vertex -5.928187 -13.314925 20.200000
    endloop
  endfacet
  facet normal 0.309017 0.951057 -0.000000
    outer loop
      vertex -5.928187 -13.314925 20.200000
      vertex -3.030313 -14.256501 18.200000
      vertex -5.928187 -13.314925 18.200000
    endloop
  endfacet
  facet normal 0.104529 0.994522 -0.000000
    outer loop
      vertex 0.000000 -14.575000 20.200000
      vertex 0.000000 -14.575000 18.200000
      vertex -3.030313 -14.256501 20.200000
    endloop
  endfacet
  facet normal 0.104529 0.994522 -0.000000
    outer loop
      vertex -3.030313 -14.256501 20.200000
      vertex 0.000000 -14.575000 18.200000
      vertex -3.030313 -14.256501 18.200000
    endloop
  endfacet
  facet normal -0.104529 0.994522 0.000000
    outer loop
      vertex 3.030313 -14.256501 20.200000
      vertex 3.030313 -14.256501 18.200000
      vertex 0.000000 -14.575000 20.200000
    endloop
  endfacet
  facet normal -0.104529 0.994522 0.000000
    outer loop
      vertex 0.000000 -14.575000 20.200000
      vertex 3.030313 -14.256501 18.200000
      vertex 0.000000 -14.575000 18.200000
    endloop
  endfacet
  facet normal -0.309017 0.951057 0.000000
    outer loop
      vertex 5.928187 -13.314925 20.200000
      vertex 5.928187 -13.314925 18.200000
      vertex 3.030313 -14.256501 20.200000
    endloop
  endfacet
  facet normal -0.309017 0.951057 0.000000
    outer loop
      vertex 3.030313 -14.256501 20.200000
      vertex 5.928187 -13.314925 18.200000
      vertex 3.030313 -14.256501 18.200000
    endloop
  endfacet
  facet normal -0.500000 0.866025 0.000000
    outer loop
      vertex 8.566970 -11.791423 20.200000
      vertex 8.566970 -11.791423 18.200000
      vertex 5.928187 -13.314925 20.200000
    endloop
  endfacet
  facet normal -0.500000 0.866025 0.000000
    outer loop
      vertex 5.928187 -13.314925 20.200000
      vertex 8.566970 -11.791423 18.200000
      vertex 5.928187 -13.314925 18.200000
    endloop
  endfacet
  facet normal -0.669131 0.743145 0.000000
    outer loop
      vertex 10.831336 -9.752579 20.200000
      vertex 10.831336 -9.752579 18.200000
      vertex 8.566970 -11.791423 20.200000
    endloop
  endfacet
  facet normal -0.669131 0.743145 0.000000
    outer loop
      vertex 8.566970 -11.791423 20.200000
      vertex 10.831336 -9.752579 18.200000
      vertex 8.566970 -11.791423 18.200000
    endloop
  endfacet
  facet normal -0.809017 0.587785 0.000000
    outer loop
      vertex 12.622320 -7.287500 20.200000
      vertex 12.622320 -7.287500 18.200000
      vertex 10.831336 -9.752579 20.200000
    endloop
  endfacet
  facet normal -0.809017 0.587785 0.000000
    outer loop
      vertex 10.831336 -9.752579 20.200000
      vertex 12.622320 -7.287500 18.200000
      vertex 10.831336 -9.752579 18.200000
    endloop
  endfacet
  facet normal -0.913545 0.406737 0.000000
    outer loop
      vertex 13.861649 -4.503923 20.200000
      vertex 13.861649 -4.503923 18.200000
      vertex 12.622320 -7.287500 20.200000
    endloop
  endfacet
  facet normal -0.913545 0.406737 0.000000
    outer loop
      vertex 12.622320 -7.287500 20.200000
      vertex 13.861649 -4.503923 18.200000
      vertex 12.622320 -7.287500 18.200000
    endloop
  endfacet
  facet normal -0.978148 0.207912 0.000000
    outer loop
      vertex 14.495157 -1.523502 20.200000
      vertex 14.495157 -1.523502 18.200000
      vertex 13.861649 -4.503923 20.200000
    endloop
  endfacet
  facet normal -0.978148 0.207912 0.000000
    outer loop
      vertex 13.861649 -4.503923 20.200000
      vertex 14.495157 -1.523502 18.200000
      vertex 13.861649 -4.503923 18.200000
    endloop
  endfacet
  facet normal -1.000000 0.000000 0.000000
    outer loop
      vertex 14.495157 1.523502 20.200000
      vertex 14.495157 1.523502 18.200000
      vertex 14.495157 -1.523502 20.200000
    endloop
  endfacet
  facet normal -1.000000 0.000000 0.000000
    outer loop
      vertex 14.495157 -1.523502 20.200000
      vertex 14.495157 1.523502 18.200000
      vertex 14.495157 -1.523502 18.200000
    endloop
  endfacet
  facet normal -0.978148 -0.207912 0.000000
    outer loop
      vertex 14.495157 1.523502 20.200000
      vertex 13.861649 4.503923 20.200000
      vertex 14.495157 1.523502 18.200000
    endloop
  endfacet
  facet normal -0.978148 -0.207912 0.000000
    outer loop
      vertex 14.495157 1.523502 18.200000
      vertex 13.861649 4.503923 20.200000
      vertex 13.861649 4.503923 18.200000
    endloop
  endfacet
  facet normal -0.913545 -0.406737 0.000000
    outer loop
      vertex 13.861649 4.503923 20.200000
      vertex 12.622320 7.287500 20.200000
      vertex 13.861649 4.503923 18.200000
    endloop
  endfacet
  facet normal -0.913545 -0.406737 0.000000
    outer loop
      vertex 13.861649 4.503923 18.200000
      vertex 12.622320 7.287500 20.200000
      vertex 12.622320 7.287500 18.200000
    endloop
  endfacet
  facet normal -0.809017 -0.587785 0.000000
    outer loop
      vertex 12.622320 7.287500 20.200000
      vertex 10.831336 9.752579 20.200000
      vertex 12.622320 7.287500 18.200000
    endloop
  endfacet
  facet normal -0.809017 -0.587785 0.000000
    outer loop
      vertex 12.622320 7.287500 18.200000
      vertex 10.831336 9.752579 20.200000
      vertex 10.831336 9.752579 18.200000
    endloop
  endfacet
  facet normal -0.669131 -0.743145 -0.000000
    outer loop
      vertex 10.831336 9.752579 18.200000
      vertex 10.831336 9.752579 20.200000
      vertex 8.566970 11.791423 20.200000
    endloop
  endfacet
  facet normal -0.669131 -0.743145 -0.000000
    outer loop
      vertex 8.566970 11.791423 18.200000
      vertex 10.831336 9.752579 18.200000
      vertex 8.566970 11.791423 20.200000
    endloop
  endfacet
  facet normal -0.500000 -0.866025 -0.000000
    outer loop
      vertex 8.566970 11.791423 18.200000
      vertex 8.566970 11.791423 20.200000
      vertex 5.928187 13.314925 20.200000
    endloop
  endfacet
  facet normal -0.500000 -0.866025 -0.000000
    outer loop
      vertex 5.928187 13.314925 18.200000
      vertex 8.566970 11.791423 18.200000
      vertex 5.928187 13.314925 20.200000
    endloop
  endfacet
  facet normal -0.309017 -0.951057 -0.000000
    outer loop
      vertex 5.928187 13.314925 18.200000
      vertex 5.928187 13.314925 20.200000
      vertex 3.030313 14.256501 20.200000
    endloop
  endfacet
  facet normal -0.309017 -0.951057 -0.000000
    outer loop
      vertex 3.030313 14.256501 18.200000
      vertex 5.928187 13.314925 18.200000
      vertex 3.030313 14.256501 20.200000
    endloop
  endfacet
  facet normal -0.104529 -0.994522 -0.000000
    outer loop
      vertex 3.030313 14.256501 18.200000
      vertex 3.030313 14.256501 20.200000
      vertex 0.000000 14.575000 20.200000
    endloop
  endfacet
  facet normal -0.104529 -0.994522 -0.000000
    outer loop
      vertex 0.000000 14.575000 18.200000
      vertex 3.030313 14.256501 18.200000
      vertex 0.000000 14.575000 20.200000
    endloop
  endfacet
  facet normal 0.104529 -0.994522 0.000000
    outer loop
      vertex 0.000000 14.575000 18.200000
      vertex 0.000000 14.575000 20.200000
      vertex -3.030313 14.256501 20.200000
    endloop
  endfacet
  facet normal 0.104529 -0.994522 0.000000
    outer loop
      vertex -3.030313 14.256501 18.200000
      vertex 0.000000 14.575000 18.200000
      vertex -3.030313 14.256501 20.200000
    endloop
  endfacet
  facet normal 0.309017 -0.951057 0.000000
    outer loop
      vertex -3.030313 14.256501 18.200000
      vertex -3.030313 14.256501 20.200000
      vertex -5.928187 13.314925 20.200000
    endloop
  endfacet
  facet normal 0.309017 -0.951057 0.000000
    outer loop
      vertex -5.928187 13.314925 18.200000
      vertex -3.030313 14.256501 18.200000
      vertex -5.928187 13.314925 20.200000
    endloop
  endfacet
  facet normal 0.500000 -0.866025 0.000000
    outer loop
      vertex -5.928187 13.314925 18.200000
      vertex -5.928187 13.314925 20.200000
      vertex -8.566970 11.791423 20.200000
    endloop
  endfacet
  facet normal 0.500000 -0.866025 0.000000
    outer loop
      vertex -8.566970 11.791423 18.200000
      vertex -5.928187 13.314925 18.200000
      vertex -8.566970 11.791423 20.200000
    endloop
  endfacet
  facet normal 0.669131 -0.743145 0.000000
    outer loop
      vertex -8.566970 11.791423 18.200000
      vertex -8.566970 11.791423 20.200000
      vertex -10.831336 9.752579 20.200000
    endloop
  endfacet
  facet normal 0.669131 -0.743145 0.000000
    outer loop
      vertex -10.831336 9.752579 18.200000
      vertex -8.566970 11.791423 18.200000
      vertex -10.831336 9.752579 20.200000
    endloop
  endfacet
  facet normal 0.809017 -0.587785 0.000000
    outer loop
      vertex -10.831336 9.752579 18.200000
      vertex -10.831336 9.752579 20.200000
      vertex -12.622320 7.287500 20.200000
    endloop
  endfacet
  facet normal 0.809017 -0.587785 0.000000
    outer loop
      vertex -12.622320 7.287500 18.200000
      vertex -10.831336 9.752579 18.200000
      vertex -12.622320 7.287500 20.200000
    endloop
  endfacet
  facet normal 0.913545 -0.406737 0.000000
    outer loop
      vertex -12.622320 7.287500 18.200000
      vertex -12.622320 7.287500 20.200000
      vertex -13.861649 4.503923 20.200000
    endloop
  endfacet
  facet normal 0.913545 -0.406737 0.000000
    outer loop
      vertex -13.861649 4.503923 18.200000
      vertex -12.622320 7.287500 18.200000
      vertex -13.861649 4.503923 20.200000
    endloop
  endfacet
  facet normal 0.978148 -0.207912 0.000000
    outer loop
      vertex -13.861649 4.503923 18.200000
      vertex -13.861649 4.503923 20.200000
      vertex -14.495157 1.523502 20.200000
    endloop
  endfacet
  facet normal 0.978148 -0.207912 0.000000
    outer loop
      vertex -14.495157 1.523502 18.200000
      vertex -13.861649 4.503923 18.200000
      vertex -14.495157 1.523502 20.200000
    endloop
  endfacet
  facet normal -0.000000 -0.000000 -1.000000
    outer loop
      vertex -12.928785 -1.358870 0.000000
      vertex -12.928785 1.358870 0.000000
      vertex -12.363735 -4.017221 0.000000
    endloop
  endfacet
  facet normal 0.000000 0.000000 -1.000000
    outer loop
      vertex -12.363735 -4.017221 0.000000
      vertex -12.928785 1.358870 0.000000
      vertex -12.363735 4.017221 0.000000
    endloop
  endfacet
  facet normal 0.000000 -0.000000 -1.000000
    outer loop
      vertex -12.363735 -4.017221 0.000000
      vertex -12.363735 4.017221 0.000000
      vertex -11.258330 6.500000 0.000000
    endloop
  endfacet
  facet normal 0.000000 -0.000000 -1.000000
    outer loop
      vertex -11.174914 3.630950 0.000000
      vertex -11.258330 6.500000 0.000000
      vertex -9.660883 8.698698 0.000000
    endloop
  endfacet
  facet normal 0.000000 -0.000000 -1.000000
    outer loop
      vertex -8.731952 7.862285 0.000000
      vertex -9.660883 8.698698 0.000000
      vertex -7.641208 10.517221 0.000000
    endloop
  endfacet
  facet normal 0.000000 -0.000000 -1.000000
    outer loop
      vertex -6.906477 9.505950 0.000000
      vertex -7.641208 10.517221 0.000000
      vertex -5.287576 11.876091 0.000000
    endloop
  endfacet
  facet normal 0.000000 -0.000000 -1.000000
    outer loop
      vertex -4.779156 10.734159 0.000000
      vertex -5.287576 11.876091 0.000000
      vertex -2.702852 12.715919 0.000000
    endloop
  endfacet
  facet normal 0.000000 -0.000000 -1.000000
    outer loop
      vertex -2.442962 11.493234 0.000000
      vertex -2.702852 12.715919 0.000000
      vertex 0.000000 13.000000 0.000000
    endloop
  endfacet
  facet normal 0.000000 -0.000000 -1.000000
    outer loop
      vertex 0.000000 11.750000 0.000000
      vertex 0.000000 13.000000 0.000000
      vertex 2.702852 12.715919 0.000000
    endloop
  endfacet
  facet normal 0.000000 0.000000 -1.000000
    outer loop
      vertex 2.442962 11.493234 0.000000
      vertex 2.702852 12.715919 0.000000
      vertex 5.287576 11.876091 0.000000
    endloop
  endfacet
  facet normal -0.000000 0.000000 -1.000000
    outer loop
      vertex 4.779156 10.734159 0.000000
      vertex 5.287576 11.876091 0.000000
      vertex 7.641208 10.517221 0.000000
    endloop
  endfacet
  facet normal -0.000000 0.000000 -1.000000
    outer loop
      vertex 6.906477 9.505950 0.000000
      vertex 7.641208 10.517221 0.000000
      vertex 9.660883 8.698698 0.000000
    endloop
  endfacet
  facet normal -0.000000 0.000000 -1.000000
    outer loop
      vertex 8.731952 7.862285 0.000000
      vertex 9.660883 8.698698 0.000000
      vertex 11.258330 6.500000 0.000000
    endloop
  endfacet
  facet normal 0.000000 0.000000 -1.000000
    outer loop
      vertex 11.174914 3.630950 0.000000
      vertex 11.258330 6.500000 0.000000
      vertex 12.363735 4.017221 0.000000
    endloop
  endfacet
  facet normal 0.000000 0.000000 -1.000000
    outer loop
      vertex 11.685632 1.228209 0.000000
      vertex 12.363735 4.017221 0.000000
      vertex 12.928785 1.358870 0.000000
    endloop
  endfacet
  facet normal -0.000000 0.000000 -1.000000
    outer loop
      vertex 11.685632 -1.228209 0.000000
      vertex 12.928785 1.358870 0.000000
      vertex 12.928785 -1.358870 0.000000
    endloop
  endfacet
  facet normal -0.000000 0.000000 -1.000000
    outer loop
      vertex 11.174914 -3.630950 0.000000
      vertex 12.928785 -1.358870 0.000000
      vertex 12.363735 -4.017221 0.000000
    endloop
  endfacet
  facet normal -0.000000 0.000000 -1.000000
    outer loop
      vertex 10.175798 -5.875000 0.000000
      vertex 12.363735 -4.017221 0.000000
      vertex 11.258330 -6.500000 0.000000
    endloop
  endfacet
  facet normal -0.000000 0.000000 -1.000000
    outer loop
      vertex 8.731952 -7.862285 0.000000
      vertex 11.258330 -6.500000 0.000000
      vertex 9.660883 -8.698698 0.000000
    endloop
  endfacet
  facet normal -0.000000 0.000000 -1.000000
    outer loop
      vertex 6.906477 -9.505950 0.000000
      vertex 9.660883 -8.698698 0.000000
      vertex 7.641208 -10.517221 0.000000
    endloop
  endfacet
  facet normal -0.000000 0.000000 -1.000000
    outer loop
      vertex 4.779156 -10.734159 0.000000
      vertex 7.641208 -10.517221 0.000000
      vertex 5.287576 -11.876091 0.000000
    endloop
  endfacet
  facet normal 0.000000 0.000000 -1.000000
    outer loop
      vertex 2.442962 -11.493234 0.000000
      vertex 5.287576 -11.876091 0.000000
      vertex 2.702852 -12.715919 0.000000
    endloop
  endfacet
  facet normal 0.000000 0.000000 -1.000000
    outer loop
      vertex 0.000000 -11.750000 0.000000
      vertex 2.702852 -12.715919 0.000000
      vertex 0.000000 -13.000000 0.000000
    endloop
  endfacet
  facet normal 0.000000 0.000000 -1.000000
    outer loop
      vertex -4.779156 -10.734159 0.000000
      vertex 0.000000 -13.000000 0.000000
      vertex -2.702852 -12.715919 0.000000
    endloop
  endfacet
  facet normal 0.000000 0.000000 -1.000000
    outer loop
      vertex -6.906477 -9.505950 0.000000
      vertex -2.702852 -12.715919 0.000000
      vertex -5.287576 -11.876091 0.000000
    endloop
  endfacet
  facet normal 0.000000 0.000000 -1.000000
    outer loop
      vertex -12.363735 -4.017221 0.000000
      vertex -5.287576 -11.876091 0.000000
      vertex -7.641208 -10.517221 0.000000
    endloop
  endfacet
  facet normal 0.000000 0.000000 -1.000000
    outer loop
      vertex -12.363735 -4.017221 0.000000
      vertex -7.641208 -10.517221 0.000000
      vertex -9.660883 -8.698698 0.000000
    endloop
  endfacet
  facet normal 0.000000 0.000000 -1.000000
    outer loop
      vertex -12.363735 -4.017221 0.000000
      vertex -9.660883 -8.698698 0.000000
      vertex -11.258330 -6.500000 0.000000
    endloop
  endfacet
  facet normal 0.000000 0.000000 -1.000000
    outer loop
      vertex -12.363735 -4.017221 0.000000
      vertex -11.258330 6.500000 0.000000
      vertex -11.685632 1.228209 0.000000
    endloop
  endfacet
  facet normal 0.000000 0.000000 -1.000000
    outer loop
      vertex -11.174914 -3.630950 0.000000
      vertex -12.363735 -4.017221 0.000000
      vertex -11.685632 -1.228209 0.000000
    endloop
  endfacet
  facet normal 0.000000 0.000000 -1.000000
    outer loop
      vertex -10.175798 -5.875000 0.000000
      vertex -12.363735 -4.017221 0.000000
      vertex -11.174914 -3.630950 0.000000
    endloop
  endfacet
  facet normal 0.000000 0.000000 -1.000000
    outer loop
      vertex -8.731952 -7.862285 0.000000
      vertex -12.363735 -4.017221 0.000000
      vertex -10.175798 -5.875000 0.000000
    endloop
  endfacet
  facet normal 0.000000 0.000000 -1.000000
    outer loop
      vertex -4.779156 -10.734159 0.000000
      vertex -2.702852 -12.715919 0.000000
      vertex -6.906477 -9.505950 0.000000
    endloop
  endfacet
  facet normal 0.000000 0.000000 -1.000000
    outer loop
      vertex -12.363735 -4.017221 0.000000
      vertex -8.731952 -7.862285 0.000000
      vertex -5.287576 -11.876091 0.000000
    endloop
  endfacet
  facet normal 0.000000 0.000000 -1.000000
    outer loop
      vertex -8.731952 -7.862285 0.000000
      vertex -6.906477 -9.505950 0.000000
      vertex -5.287576 -11.876091 0.000000
    endloop
  endfacet
  facet normal 0.000000 0.000000 -1.000000
    outer loop
      vertex -2.442962 -11.493234 0.000000
      vertex 0.000000 -13.000000 0.000000
      vertex -4.779156 -10.734159 0.000000
    endloop
  endfacet
  facet normal 0.000000 0.000000 -1.000000
    outer loop
      vertex 0.000000 -11.750000 0.000000
      vertex 0.000000 -13.000000 0.000000
      vertex -2.442962 -11.493234 0.000000
    endloop
  endfacet
  facet normal -0.000000 0.000000 -1.000000
    outer loop
      vertex 11.174914 3.630950 0.000000
      vertex 12.363735 4.017221 0.000000
      vertex 11.685632 1.228209 0.000000
    endloop
  endfacet
  facet normal -0.000000 0.000000 -1.000000
    outer loop
      vertex 10.175798 5.875000 0.000000
      vertex 11.258330 6.500000 0.000000
      vertex 11.174914 3.630950 0.000000
    endloop
  endfacet
  facet normal -0.000000 0.000000 -1.000000
    outer loop
      vertex 11.685632 1.228209 0.000000
      vertex 12.928785 1.358870 0.000000
      vertex 11.685632 -1.228209 0.000000
    endloop
  endfacet
  facet normal 0.000000 0.000000 -1.000000
    outer loop
      vertex 11.685632 -1.228209 0.000000
      vertex 12.928785 -1.358870 0.000000
      vertex 11.174914 -3.630950 0.000000
    endloop
  endfacet
  facet normal 0.000000 0.000000 -1.000000
    outer loop
      vertex 11.174914 -3.630950 0.000000
      vertex 12.363735 -4.017221 0.000000
      vertex 10.175798 -5.875000 0.000000
    endloop
  endfacet
  facet normal 0.000000 0.000000 -1.000000
    outer loop
      vertex 10.175798 -5.875000 0.000000
      vertex 11.258330 -6.500000 0.000000
      vertex 8.731952 -7.862285 0.000000
    endloop
  endfacet
  facet normal 0.000000 0.000000 -1.000000
    outer loop
      vertex 8.731952 -7.862285 0.000000
      vertex 9.660883 -8.698698 0.000000
      vertex 6.906477 -9.505950 0.000000
    endloop
  endfacet
  facet normal 0.000000 0.000000 -1.000000
    outer loop
      vertex 6.906477 -9.505950 0.000000
      vertex 7.641208 -10.517221 0.000000
      vertex 4.779156 -10.734159 0.000000
    endloop
  endfacet
  facet normal 0.000000 0.000000 -1.000000
    outer loop
      vertex 4.779156 -10.734159 0.000000
      vertex 5.287576 -11.876091 0.000000
      vertex 2.442962 -11.493234 0.000000
    endloop
  endfacet
  facet normal 0.000000 0.000000 -1.000000
    outer loop
      vertex 2.442962 -11.493234 0.000000
      vertex 2.702852 -12.715919 0.000000
      vertex 0.000000 -11.750000 0.000000
    endloop
  endfacet
  facet normal 0.000000 0.000000 -1.000000
    outer loop
      vertex -10.175798 5.875000 0.000000
      vertex -9.660883 8.698698 0.000000
      vertex -8.731952 7.862285 0.000000
    endloop
  endfacet
  facet normal 0.000000 0.000000 -1.000000
    outer loop
      vertex -11.174914 3.630950 0.000000
      vertex -9.660883 8.698698 0.000000
      vertex -10.175798 5.875000 0.000000
    endloop
  endfacet
  facet normal 0.000000 0.000000 -1.000000
    outer loop
      vertex -11.685632 1.228209 0.000000
      vertex -11.258330 6.500000 0.000000
      vertex -11.174914 3.630950 0.000000
    endloop
  endfacet
  facet normal 0.000000 0.000000 -1.000000
    outer loop
      vertex -11.685632 -1.228209 0.000000
      vertex -12.363735 -4.017221 0.000000
      vertex -11.685632 1.228209 0.000000
    endloop
  endfacet
  facet normal 0.000000 0.000000 -1.000000
    outer loop
      vertex -8.731952 7.862285 0.000000
      vertex -7.641208 10.517221 0.000000
      vertex -6.906477 9.505950 0.000000
    endloop
  endfacet
  facet normal 0.000000 0.000000 -1.000000
    outer loop
      vertex -6.906477 9.505950 0.000000
      vertex -5.287576 11.876091 0.000000
      vertex -4.779156 10.734159 0.000000
    endloop
  endfacet
  facet normal 0.000000 0.000000 -1.000000
    outer loop
      vertex -4.779156 10.734159 0.000000
      vertex -2.702852 12.715919 0.000000
      vertex -2.442962 11.493234 0.000000
    endloop
  endfacet
  facet normal 0.000000 0.000000 -1.000000
    outer loop
      vertex -2.442962 11.493234 0.000000
      vertex 0.000000 13.000000 0.000000
      vertex 0.000000 11.750000 0.000000
    endloop
  endfacet
  facet normal -0.000000 0.000000 -1.000000
    outer loop
      vertex 0.000000 11.750000 0.000000
      vertex 2.702852 12.715919 0.000000
      vertex 2.442962 11.493234 0.000000
    endloop
  endfacet
  facet normal -0.000000 0.000000 -1.000000
    outer loop
      vertex 2.442962 11.493234 0.000000
      vertex 5.287576 11.876091 0.000000
      vertex 4.779156 10.734159 0.000000
    endloop
  endfacet
  facet normal 0.000000 0.000000 -1.000000
    outer loop
      vertex 4.779156 10.734159 0.000000
      vertex 7.641208 10.517221 0.000000
      vertex 6.906477 9.505950 0.000000
    endloop
  endfacet
  facet normal 0.000000 0.000000 -1.000000
    outer loop
      vertex 6.906477 9.505950 0.000000
      vertex 9.660883 8.698698 0.000000
      vertex 8.731952 7.862285 0.000000
    endloop
  endfacet
  facet normal 0.000000 0.000000 -1.000000
    outer loop
      vertex 8.731952 7.862285 0.000000
      vertex 11.258330 6.500000 0.000000
      vertex 10.175798 5.875000 0.000000
    endloop
  endfacet
  facet normal 0.000000 0.000000 1.000000
    outer loop
      vertex -13.861649 -4.503923 18.200000
      vertex -12.622320 -7.287500 18.200000
      vertex -10.831336 -9.752579 18.200000
    endloop
  endfacet
  facet normal 0.000000 0.000000 1.000000
    outer loop
      vertex -5.928187 -13.314925 18.200000
      vertex -13.861649 -4.503923 18.200000
      vertex -8.566970 -11.791423 18.200000
    endloop
  endfacet
  facet normal 0.000000 0.000000 1.000000
    outer loop
      vertex -8.566970 -11.791423 18.200000
      vertex -13.861649 -4.503923 18.200000
      vertex -10.831336 -9.752579 18.200000
    endloop
  endfacet
  facet normal 0.000000 0.000000 1.000000
    outer loop
      vertex -3.030313 -14.256501 18.200000
      vertex -13.861649 -4.503923 18.200000
      vertex -5.928187 -13.314925 18.200000
    endloop
  endfacet
  facet normal 0.000000 0.000000 1.000000
    outer loop
      vertex 0.000000 -14.575000 18.200000
      vertex -13.861649 -4.503923 18.200000
      vertex -3.030313 -14.256501 18.200000
    endloop
  endfacet
  facet normal -0.000000 -0.000000 1.000000
    outer loop
      vertex -6.906477 -9.505950 18.200000
      vertex -13.861649 -4.503923 18.200000
      vertex 0.000000 -14.575000 18.200000
    endloop
  endfacet
  facet normal 0.000000 0.000000 1.000000
    outer loop
      vertex -6.906477 -9.505950 18.200000
      vertex -8.731952 -7.862285 18.200000
      vertex -13.861649 -4.503923 18.200000
    endloop
  endfacet
  facet normal -0.000000 -0.000000 1.000000
    outer loop
      vertex 0.000000 -11.750000 18.200000
      vertex -2.442962 -11.493234 18.200000
      vertex 3.030313 -14.256501 18.200000
    endloop
  endfacet
  facet normal 0.000000 -0.000000 1.000000
    outer loop
      vertex 2.442962 -11.493234 18.200000
      vertex 0.000000 -11.750000 18.200000
      vertex 5.928187 -13.314925 18.200000
    endloop
  endfacet
  facet normal 0.000000 -0.000000 1.000000
    outer loop
      vertex 6.906477 -9.505950 18.200000
      vertex 4.779156 -10.734159 18.200000
      vertex 8.566970 -11.791423 18.200000
    endloop
  endfacet
  facet normal 0.000000 -0.000000 1.000000
    outer loop
      vertex 8.731952 -7.862285 18.200000
      vertex 6.906477 -9.505950 18.200000
      vertex 10.831336 -9.752579 18.200000
    endloop
  endfacet
  facet normal 0.000000 -0.000000 1.000000
    outer loop
      vertex 10.175798 -5.875000 18.200000
      vertex 8.731952 -7.862285 18.200000
      vertex 12.622320 -7.287500 18.200000
    endloop
  endfacet
  facet normal 0.000000 -0.000000 1.000000
    outer loop
      vertex 11.174914 -3.630950 18.200000
      vertex 10.175798 -5.875000 18.200000
      vertex 13.861649 -4.503923 18.200000
    endloop
  endfacet
  facet normal 0.000000 -0.000000 1.000000
    outer loop
      vertex 11.685632 -1.228209 18.200000
      vertex 11.174914 -3.630950 18.200000
      vertex 14.495157 -1.523502 18.200000
    endloop
  endfacet
  facet normal 0.000000 0.000000 1.000000
    outer loop
      vertex 8.731952 7.862285 18.200000
      vertex 10.175798 5.875000 18.200000
      vertex 12.622320 7.287500 18.200000
    endloop
  endfacet
  facet normal 0.000000 0.000000 1.000000
    outer loop
      vertex 6.906477 9.505950 18.200000
      vertex 8.731952 7.862285 18.200000
      vertex 10.831336 9.752579 18.200000
    endloop
  endfacet
  facet normal 0.000000 0.000000 1.000000
    outer loop
      vertex 4.779156 10.734159 18.200000
      vertex 6.906477 9.505950 18.200000
      vertex 8.566970 11.791423 18.200000
    endloop
  endfacet
  facet normal 0.000000 0.000000 1.000000
    outer loop
      vertex 2.442962 11.493234 18.200000
      vertex 4.779156 10.734159 18.200000
      vertex 5.928187 13.314925 18.200000
    endloop
  endfacet
  facet normal 0.000000 0.000000 1.000000
    outer loop
      vertex 0.000000 11.750000 18.200000
      vertex 2.442962 11.493234 18.200000
      vertex 3.030313 14.256501 18.200000
    endloop
  endfacet
  facet normal 0.000000 0.000000 1.000000
    outer loop
      vertex 11.174914 3.630950 18.200000
      vertex 11.685632 1.228209 18.200000
      vertex 13.861649 4.503923 18.200000
    endloop
  endfacet
  facet normal 0.000000 -0.000000 1.000000
    outer loop
      vertex -10.831336 9.752579 18.200000
      vertex -13.861649 -4.503923 18.200000
      vertex -8.566970 11.791423 18.200000
    endloop
  endfacet
  facet normal 0.000000 -0.000000 1.000000
    outer loop
      vertex -12.622320 7.287500 18.200000
      vertex -13.861649 -4.503923 18.200000
      vertex -10.831336 9.752579 18.200000
    endloop
  endfacet
  facet normal 0.000000 -0.000000 1.000000
    outer loop
      vertex -13.861649 4.503923 18.200000
      vertex -13.861649 -4.503923 18.200000
      vertex -12.622320 7.287500 18.200000
    endloop
  endfacet
  facet normal 0.000000 0.000000 1.000000
    outer loop
      vertex -14.495157 1.523502 18.200000
      vertex -13.861649 -4.503923 18.200000
      vertex -13.861649 4.503923 18.200000
    endloop
  endfacet
  facet normal 0.000000 0.000000 1.000000
    outer loop
      vertex -14.495157 -1.523502 18.200000
      vertex -13.861649 -4.503923 18.200000
      vertex -14.495157 1.523502 18.200000
    endloop
  endfacet
  facet normal 0.000000 0.000000 1.000000
    outer loop
      vertex -6.906477 9.505950 18.200000
      vertex -4.779156 10.734159 18.200000
      vertex -3.030313 14.256501 18.200000
    endloop
  endfacet
  facet normal 0.000000 0.000000 1.000000
    outer loop
      vertex -11.174914 3.630950 18.200000
      vertex -13.861649 -4.503923 18.200000
      vertex -11.685632 1.228209 18.200000
    endloop
  endfacet
  facet normal 0.000000 0.000000 1.000000
    outer loop
      vertex -8.731952 7.862285 18.200000
      vertex -6.906477 9.505950 18.200000
      vertex -5.928187 13.314925 18.200000
    endloop
  endfacet
  facet normal 0.000000 0.000000 1.000000
    outer loop
      vertex -8.566970 11.791423 18.200000
      vertex -13.861649 -4.503923 18.200000
      vertex -11.174914 3.630950 18.200000
    endloop
  endfacet
  facet normal 0.000000 -0.000000 1.000000
    outer loop
      vertex -8.566970 11.791423 18.200000
      vertex -10.175798 5.875000 18.200000
      vertex -5.928187 13.314925 18.200000
    endloop
  endfacet
  facet normal 0.000000 0.000000 1.000000
    outer loop
      vertex -10.175798 5.875000 18.200000
      vertex -8.731952 7.862285 18.200000
      vertex -5.928187 13.314925 18.200000
    endloop
  endfacet
  facet normal 0.000000 -0.000000 1.000000
    outer loop
      vertex -5.928187 13.314925 18.200000
      vertex -6.906477 9.505950 18.200000
      vertex -3.030313 14.256501 18.200000
    endloop
  endfacet
  facet normal 0.000000 0.000000 1.000000
    outer loop
      vertex -11.174914 3.630950 18.200000
      vertex -10.175798 5.875000 18.200000
      vertex -8.566970 11.791423 18.200000
    endloop
  endfacet
  facet normal 0.000000 -0.000000 1.000000
    outer loop
      vertex -3.030313 14.256501 18.200000
      vertex -4.779156 10.734159 18.200000
      vertex 0.000000 14.575000 18.200000
    endloop
  endfacet
  facet normal 0.000000 0.000000 1.000000
    outer loop
      vertex -8.731952 -7.862285 18.200000
      vertex -10.175798 -5.875000 18.200000
      vertex -13.861649 -4.503923 18.200000
    endloop
  endfacet
  facet normal 0.000000 0.000000 1.000000
    outer loop
      vertex -4.779156 10.734159 18.200000
      vertex -2.442962 11.493234 18.200000
      vertex 0.000000 14.575000 18.200000
    endloop
  endfacet
  facet normal 0.000000 -0.000000 1.000000
    outer loop
      vertex 0.000000 14.575000 18.200000
      vertex 0.000000 11.750000 18.200000
      vertex 3.030313 14.256501 18.200000
    endloop
  endfacet
  facet normal 0.000000 -0.000000 1.000000
    outer loop
      vertex 3.030313 14.256501 18.200000
      vertex 2.442962 11.493234 18.200000
      vertex 5.928187 13.314925 18.200000
    endloop
  endfacet
  facet normal 0.000000 -0.000000 1.000000
    outer loop
      vertex 5.928187 13.314925 18.200000
      vertex 4.779156 10.734159 18.200000
      vertex 8.566970 11.791423 18.200000
    endloop
  endfacet
  facet normal 0.000000 -0.000000 1.000000
    outer loop
      vertex 8.566970 11.791423 18.200000
      vertex 6.906477 9.505950 18.200000
      vertex 10.831336 9.752579 18.200000
    endloop
  endfacet
  facet normal 0.000000 -0.000000 1.000000
    outer loop
      vertex 10.831336 9.752579 18.200000
      vertex 8.731952 7.862285 18.200000
      vertex 12.622320 7.287500 18.200000
    endloop
  endfacet
  facet normal 0.000000 -0.000000 1.000000
    outer loop
      vertex 12.622320 7.287500 18.200000
      vertex 10.175798 5.875000 18.200000
      vertex 13.861649 4.503923 18.200000
    endloop
  endfacet
  facet normal 0.000000 0.000000 1.000000
    outer loop
      vertex 10.175798 5.875000 18.200000
      vertex 11.174914 3.630950 18.200000
      vertex 13.861649 4.503923 18.200000
    endloop
  endfacet
  facet normal 0.000000 -0.000000 1.000000
    outer loop
      vertex 13.861649 4.503923 18.200000
      vertex 11.685632 1.228209 18.200000
      vertex 14.495157 1.523502 18.200000
    endloop
  endfacet
  facet normal 0.000000 0.000000 1.000000
    outer loop
      vertex 14.495157 1.523502 18.200000
      vertex 11.685632 -1.228209 18.200000
      vertex 14.495157 -1.523502 18.200000
    endloop
  endfacet
  facet normal 0.000000 0.000000 1.000000
    outer loop
      vertex 14.495157 -1.523502 18.200000
      vertex 11.174914 -3.630950 18.200000
      vertex 13.861649 -4.503923 18.200000
    endloop
  endfacet
  facet normal 0.000000 0.000000 1.000000
    outer loop
      vertex 13.861649 -4.503923 18.200000
      vertex 10.175798 -5.875000 18.200000
      vertex 12.622320 -7.287500 18.200000
    endloop
  endfacet
  facet normal 0.000000 0.000000 1.000000
    outer loop
      vertex 12.622320 -7.287500 18.200000
      vertex 8.731952 -7.862285 18.200000
      vertex 10.831336 -9.752579 18.200000
    endloop
  endfacet
  facet normal -0.000000 0.000000 1.000000
    outer loop
      vertex 10.831336 -9.752579 18.200000
      vertex 6.906477 -9.505950 18.200000
      vertex 8.566970 -11.791423 18.200000
    endloop
  endfacet
  facet normal -0.000000 0.000000 1.000000
    outer loop
      vertex 8.566970 -11.791423 18.200000
      vertex 4.779156 -10.734159 18.200000
      vertex 5.928187 -13.314925 18.200000
    endloop
  endfacet
  facet normal 0.000000 -0.000000 1.000000
    outer loop
      vertex 4.779156 -10.734159 18.200000
      vertex 2.442962 -11.493234 18.200000
      vertex 5.928187 -13.314925 18.200000
    endloop
  endfacet
  facet normal -0.000000 0.000000 1.000000
    outer loop
      vertex 5.928187 -13.314925 18.200000
      vertex 0.000000 -11.750000 18.200000
      vertex 3.030313 -14.256501 18.200000
    endloop
  endfacet
  facet normal -0.000000 0.000000 1.000000
    outer loop
      vertex 3.030313 -14.256501 18.200000
      vertex -2.442962 -11.493234 18.200000
      vertex 0.000000 -14.575000 18.200000
    endloop
  endfacet
  facet normal -0.000000 -0.000000 1.000000
    outer loop
      vertex -2.442962 -11.493234 18.200000
      vertex -4.779156 -10.734159 18.200000
      vertex 0.000000 -14.575000 18.200000
    endloop
  endfacet
  facet normal -0.000000 -0.000000 1.000000
    outer loop
      vertex -4.779156 -10.734159 18.200000
      vertex -6.906477 -9.505950 18.200000
      vertex 0.000000 -14.575000 18.200000
    endloop
  endfacet
  facet normal 0.000000 -0.000000 1.000000
    outer loop
      vertex 11.685632 1.228209 18.200000
      vertex 11.685632 -1.228209 18.200000
      vertex 14.495157 1.523502 18.200000
    endloop
  endfacet
  facet normal 0.000000 0.000000 1.000000
    outer loop
      vertex -2.442962 11.493234 18.200000
      vertex 0.000000 11.750000 18.200000
      vertex 0.000000 14.575000 18.200000
    endloop
  endfacet
  facet normal -0.000000 0.000000 1.000000
    outer loop
      vertex -11.685632 -1.228209 18.200000
      vertex -11.685632 1.228209 18.200000
      vertex -13.861649 -4.503923 18.200000
    endloop
  endfacet
  facet normal 0.000000 0.000000 1.000000
    outer loop
      vertex -10.175798 -5.875000 18.200000
      vertex -11.174914 -3.630950 18.200000
      vertex -13.861649 -4.503923 18.200000
    endloop
  endfacet
  facet normal -0.000000 0.000000 1.000000
    outer loop
      vertex -11.174914 -3.630950 18.200000
      vertex -11.685632 -1.228209 18.200000
      vertex -13.861649 -4.503923 18.200000
    endloop
  endfacet
  facet normal 1.000000 0.000000 0.000000
    outer loop
      vertex -11.685632 1.228209 0.000000
      vertex -11.685632 1.228209 18.200000
      vertex -11.685632 -1.228209 18.200000
    endloop
  endfacet
  facet normal 1.000000 0.000000 0.000000
    outer loop
      vertex -11.685632 -1.228209 0.000000
      vertex -11.685632 1.228209 0.000000
      vertex -11.685632 -1.228209 18.200000
    endloop
  endfacet
  facet normal 0.978148 -0.207912 0.000000
    outer loop
      vertex -11.174914 3.630950 0.000000
      vertex -11.174914 3.630950 18.200000
      vertex -11.685632 1.228209 18.200000
    endloop
  endfacet
  facet normal 0.978148 -0.207912 0.000000
    outer loop
      vertex -11.685632 1.228209 0.000000
      vertex -11.174914 3.630950 0.000000
      vertex -11.685632 1.228209 18.200000
    endloop
  endfacet
  facet normal 0.913545 -0.406737 0.000000
    outer loop
      vertex -10.175798 5.875000 0.000000
      vertex -10.175798 5.875000 18.200000
      vertex -11.174914 3.630950 18.200000
    endloop
  endfacet
  facet normal 0.913545 -0.406737 0.000000
    outer loop
      vertex -11.174914 3.630950 0.000000
      vertex -10.175798 5.875000 0.000000
      vertex -11.174914 3.630950 18.200000
    endloop
  endfacet
  facet normal 0.809017 -0.587785 0.000000
    outer loop
      vertex -8.731952 7.862285 0.000000
      vertex -8.731952 7.862285 18.200000
      vertex -10.175798 5.875000 18.200000
    endloop
  endfacet
  facet normal 0.809017 -0.587785 0.000000
    outer loop
      vertex -10.175798 5.875000 0.000000
      vertex -8.731952 7.862285 0.000000
      vertex -10.175798 5.875000 18.200000
    endloop
  endfacet
  facet normal 0.669131 -0.743145 0.000000
    outer loop
      vertex -6.906477 9.505950 0.000000
      vertex -6.906477 9.505950 18.200000
      vertex -8.731952 7.862285 18.200000
    endloop
  endfacet
  facet normal 0.669131 -0.743145 0.000000
    outer loop
      vertex -8.731952 7.862285 0.000000
      vertex -6.906477 9.505950 0.000000
      vertex -8.731952 7.862285 18.200000
    endloop
  endfacet
  facet normal 0.500000 -0.866025 0.000000
    outer loop
      vertex -4.779156 10.734159 0.000000
      vertex -4.779156 10.734159 18.200000
      vertex -6.906477 9.505950 18.200000
    endloop
  endfacet
  facet normal 0.500000 -0.866025 0.000000
    outer loop
      vertex -6.906477 9.505950 0.000000
      vertex -4.779156 10.734159 0.000000
      vertex -6.906477 9.505950 18.200000
    endloop
  endfacet
  facet normal 0.309017 -0.951057 0.000000
    outer loop
      vertex -2.442962 11.493234 0.000000
      vertex -2.442962 11.493234 18.200000
      vertex -4.779156 10.734159 18.200000
    endloop
  endfacet
  facet normal 0.309017 -0.951057 0.000000
    outer loop
      vertex -4.779156 10.734159 0.000000
      vertex -2.442962 11.493234 0.000000
      vertex -4.779156 10.734159 18.200000
    endloop
  endfacet
  facet normal 0.104529 -0.994522 0.000000
    outer loop
      vertex 0.000000 11.750000 0.000000
      vertex 0.000000 11.750000 18.200000
      vertex -2.442962 11.493234 18.200000
    endloop
  endfacet
  facet normal 0.104529 -0.994522 0.000000
    outer loop
      vertex -2.442962 11.493234 0.000000
      vertex 0.000000 11.750000 0.000000
      vertex -2.442962 11.493234 18.200000
    endloop
  endfacet
  facet normal -0.104529 -0.994522 -0.000000
    outer loop
      vertex 2.442962 11.493234 0.000000
      vertex 2.442962 11.493234 18.200000
      vertex 0.000000 11.750000 18.200000
    endloop
  endfacet
  facet normal -0.104529 -0.994522 -0.000000
    outer loop
      vertex 0.000000 11.750000 0.000000
      vertex 2.442962 11.493234 0.000000
      vertex 0.000000 11.750000 18.200000
    endloop
  endfacet
  facet normal -0.309017 -0.951057 -0.000000
    outer loop
      vertex 4.779156 10.734159 0.000000
      vertex 4.779156 10.734159 18.200000
      vertex 2.442962 11.493234 18.200000
    endloop
  endfacet
  facet normal -0.309017 -0.951057 -0.000000
    outer loop
      vertex 2.442962 11.493234 0.000000
      vertex 4.779156 10.734159 0.000000
      vertex 2.442962 11.493234 18.200000
    endloop
  endfacet
  facet normal -0.500000 -0.866025 -0.000000
    outer loop
      vertex 6.906477 9.505950 0.000000
      vertex 6.906477 9.505950 18.200000
      vertex 4.779156 10.734159 18.200000
    endloop
  endfacet
  facet normal -0.500000 -0.866025 -0.000000
    outer loop
      vertex 4.779156 10.734159 0.000000
      vertex 6.906477 9.505950 0.000000
      vertex 4.779156 10.734159 18.200000
    endloop
  endfacet
  facet normal -0.669131 -0.743145 -0.000000
    outer loop
      vertex 8.731952 7.862285 0.000000
      vertex 8.731952 7.862285 18.200000
      vertex 6.906477 9.505950 18.200000
    endloop
  endfacet
  facet normal -0.669131 -0.743145 -0.000000
    outer loop
      vertex 6.906477 9.505950 0.000000
      vertex 8.731952 7.862285 0.000000
      vertex 6.906477 9.505950 18.200000
    endloop
  endfacet
  facet normal -0.809017 -0.587785 0.000000
    outer loop
      vertex 10.175798 5.875000 18.200000
      vertex 8.731952 7.862285 18.200000
      vertex 10.175798 5.875000 0.000000
    endloop
  endfacet
  facet normal -0.809017 -0.587785 0.000000
    outer loop
      vertex 10.175798 5.875000 0.000000
      vertex 8.731952 7.862285 18.200000
      vertex 8.731952 7.862285 0.000000
    endloop
  endfacet
  facet normal -0.913545 -0.406737 0.000000
    outer loop
      vertex 11.174914 3.630950 18.200000
      vertex 10.175798 5.875000 18.200000
      vertex 11.174914 3.630950 0.000000
    endloop
  endfacet
  facet normal -0.913545 -0.406737 0.000000
    outer loop
      vertex 11.174914 3.630950 0.000000
      vertex 10.175798 5.875000 18.200000
      vertex 10.175798 5.875000 0.000000
    endloop
  endfacet
  facet normal -0.978148 -0.207912 0.000000
    outer loop
      vertex 11.685632 1.228209 18.200000
      vertex 11.174914 3.630950 18.200000
      vertex 11.685632 1.228209 0.000000
    endloop
  endfacet
  facet normal -0.978148 -0.207912 0.000000
    outer loop
      vertex 11.685632 1.228209 0.000000
      vertex 11.174914 3.630950 18.200000
      vertex 11.174914 3.630950 0.000000
    endloop
  endfacet
  facet normal -1.000000 0.000000 0.000000
    outer loop
      vertex 11.685632 1.228209 18.200000
      vertex 11.685632 1.228209 0.000000
      vertex 11.685632 -1.228209 18.200000
    endloop
  endfacet
  facet normal -1.000000 0.000000 0.000000
    outer loop
      vertex 11.685632 -1.228209 18.200000
      vertex 11.685632 1.228209 0.000000
      vertex 11.685632 -1.228209 0.000000
    endloop
  endfacet
  facet normal -0.978148 0.207912 0.000000
    outer loop
      vertex 11.685632 -1.228209 18.200000
      vertex 11.685632 -1.228209 0.000000
      vertex 11.174914 -3.630950 18.200000
    endloop
  endfacet
  facet normal -0.978148 0.207912 0.000000
    outer loop
      vertex 11.174914 -3.630950 18.200000
      vertex 11.685632 -1.228209 0.000000
      vertex 11.174914 -3.630950 0.000000
    endloop
  endfacet
  facet normal -0.913545 0.406737 0.000000
    outer loop
      vertex 11.174914 -3.630950 18.200000
      vertex 11.174914 -3.630950 0.000000
      vertex 10.175798 -5.875000 18.200000
    endloop
  endfacet
  facet normal -0.913545 0.406737 0.000000
    outer loop
      vertex 10.175798 -5.875000 18.200000
      vertex 11.174914 -3.630950 0.000000
      vertex 10.175798 -5.875000 0.000000
    endloop
  endfacet
  facet normal -0.809017 0.587785 0.000000
    outer loop
      vertex 10.175798 -5.875000 18.200000
      vertex 10.175798 -5.875000 0.000000
      vertex 8.731952 -7.862285 18.200000
    endloop
  endfacet
  facet normal -0.809017 0.587785 0.000000
    outer loop
      vertex 8.731952 -7.862285 18.200000
      vertex 10.175798 -5.875000 0.000000
      vertex 8.731952 -7.862285 0.000000
    endloop
  endfacet
  facet normal -0.669131 0.743145 0.000000
    outer loop
      vertex 8.731952 -7.862285 18.200000
      vertex 8.731952 -7.862285 0.000000
      vertex 6.906477 -9.505950 18.200000
    endloop
  endfacet
  facet normal -0.669131 0.743145 0.000000
    outer loop
      vertex 6.906477 -9.505950 18.200000
      vertex 8.731952 -7.862285 0.000000
      vertex 6.906477 -9.505950 0.000000
    endloop
  endfacet
  facet normal -0.500000 0.866025 0.000000
    outer loop
      vertex 6.906477 -9.505950 18.200000
      vertex 6.906477 -9.505950 0.000000
      vertex 4.779156 -10.734159 18.200000
    endloop
  endfacet
  facet normal -0.500000 0.866025 0.000000
    outer loop
      vertex 4.779156 -10.734159 18.200000
      vertex 6.906477 -9.505950 0.000000
      vertex 4.779156 -10.734159 0.000000
    endloop
  endfacet
  facet normal -0.309017 0.951057 0.000000
    outer loop
      vertex 4.779156 -10.734159 18.200000
      vertex 4.779156 -10.734159 0.000000
      vertex 2.442962 -11.493234 18.200000
    endloop
  endfacet
  facet normal -0.309017 0.951057 0.000000
    outer loop
      vertex 2.442962 -11.493234 18.200000
      vertex 4.779156 -10.734159 0.000000
      vertex 2.442962 -11.493234 0.000000
    endloop
  endfacet
  facet normal -0.104529 0.994522 0.000000
    outer loop
      vertex 2.442962 -11.493234 18.200000
      vertex 2.442962 -11.493234 0.000000
      vertex 0.000000 -11.750000 18.200000
    endloop
  endfacet
  facet normal -0.104529 0.994522 0.000000
    outer loop
      vertex 0.000000 -11.750000 18.200000
      vertex 2.442962 -11.493234 0.000000
      vertex 0.000000 -11.750000 0.000000
    endloop
  endfacet
  facet normal 0.104529 0.994522 -0.000000
    outer loop
      vertex 0.000000 -11.750000 18.200000
      vertex 0.000000 -11.750000 0.000000
      vertex -2.442962 -11.493234 18.200000
    endloop
  endfacet
  facet normal 0.104529 0.994522 -0.000000
    outer loop
      vertex -2.442962 -11.493234 18.200000
      vertex 0.000000 -11.750000 0.000000
      vertex -2.442962 -11.493234 0.000000
    endloop
  endfacet
  facet normal 0.309017 0.951057 -0.000000
    outer loop
      vertex -2.442962 -11.493234 18.200000
      vertex -2.442962 -11.493234 0.000000
      vertex -4.779156 -10.734159 18.200000
    endloop
  endfacet
  facet normal 0.309017 0.951057 -0.000000
    outer loop
      vertex -4.779156 -10.734159 18.200000
      vertex -2.442962 -11.493234 0.000000
      vertex -4.779156 -10.734159 0.000000
    endloop
  endfacet
  facet normal 0.500000 0.866025 -0.000000
    outer loop
      vertex -4.779156 -10.734159 18.200000
      vertex -4.779156 -10.734159 0.000000
      vertex -6.906477 -9.505950 18.200000
    endloop
  endfacet
  facet normal 0.500000 0.866025 -0.000000
    outer loop
      vertex -6.906477 -9.505950 18.200000
      vertex -4.779156 -10.734159 0.000000
      vertex -6.906477 -9.505950 0.000000
    endloop
  endfacet
  facet normal 0.669131 0.743145 -0.000000
    outer loop
      vertex -6.906477 -9.505950 18.200000
      vertex -6.906477 -9.505950 0.000000
      vertex -8.731952 -7.862285 18.200000
    endloop
  endfacet
  facet normal 0.669131 0.743145 -0.000000
    outer loop
      vertex -8.731952 -7.862285 18.200000
      vertex -6.906477 -9.505950 0.000000
      vertex -8.731952 -7.862285 0.000000
    endloop
  endfacet
  facet normal 0.809017 0.587785 0.000000
    outer loop
      vertex -10.175798 -5.875000 18.200000
      vertex -8.731952 -7.862285 18.200000
      vertex -8.731952 -7.862285 0.000000
    endloop
  endfacet
  facet normal 0.809017 0.587785 0.000000
    outer loop
      vertex -10.175798 -5.875000 0.000000
      vertex -10.175798 -5.875000 18.200000
      vertex -8.731952 -7.862285 0.000000
    endloop
  endfacet
  facet normal 0.913545 0.406737 0.000000
    outer loop
      vertex -11.174914 -3.630950 18.200000
      vertex -10.175798 -5.875000 18.200000
      vertex -10.175798 -5.875000 0.000000
    endloop
  endfacet
  facet normal 0.913545 0.406737 0.000000
    outer loop
      vertex -11.174914 -3.630950 0.000000
      vertex -11.174914 -3.630950 18.200000
      vertex -10.175798 -5.875000 0.000000
    endloop
  endfacet
  facet normal 0.978148 0.207912 0.000000
    outer loop
      vertex -11.685632 -1.228209 18.200000
      vertex -11.174914 -3.630950 18.200000
      vertex -11.174914 -3.630950 0.000000
    endloop
  endfacet
  facet normal 0.978148 0.207912 0.000000
    outer loop
      vertex -11.685632 -1.228209 0.000000
      vertex -11.685632 -1.228209 18.200000
      vertex -11.174914 -3.630950 0.000000
    endloop
  endfacet
endsolid OpenSCAD_Model
